# xmcd
#
# Track frame offsets:
#	150
#	20635
#	33464
#	45781
#	68241
#	86600
#	101218
#	119535
#	140012
#	165427
#	183884
#	206524
#	223040
#	240112
#
# Disc length: 3479 seconds
# Revision: 0
# Processed by: cddbd v1.5.2PL0 Copyright (c) Steve Scherf et al.
# Submitted via: dBpowerAMP V12.0
#
DISCID=bb0d950e
DTITLE=Albert Bashor - Cotton Field Of Dreams
DYEAR=2011
DGENRE=Blues
TTITLE0=Jukin' Down On Johnson Street
TTITLE1=Rockin' Red Rooster
TTITLE2=Poodle Ribs Story
TTITLE3=Poodle Ribs
TTITLE4=Put Me On Like You Do
TTITLE5=Tater Diggin' Woman
TTITLE6=So Blue
TTITLE7=One Last Time
TTITLE8=Cotton Field Of Dreams
TTITLE9=Seeing Eye Dog Blues
TTITLE10=Fetch Me
TTITLE11=No Place Like Home
TTITLE12=High On Your Love
TTITLE13=Lucky Man
EXTD=
EXTT0=
EXTT1=
EXTT2=
EXTT3=
EXTT4=
EXTT5=
EXTT6=
EXTT7=
EXTT8=
EXTT9=
EXTT10=
EXTT11=
EXTT12=
EXTT13=
PLAYORDER=
